<svg width="314" height="392" xmlns="http://www.w3.org/2000/svg">

 <g>
  <title>background</title>
  <rect fill="none" id="canvas_background" height="394" width="316" y="-1" x="-1"/>
 </g>
 <g>
  <title>Layer 1</title>
  <g stroke="null" id="g5856">
   <path stroke="null" fill="#ffffff" fill-rule="evenodd" id="path9-3" d="m287.78844,207.98983c-14.11889,-15.22198 -32.91839,-25.30405 -56.39514,-30.23778l0,-2.04693c16.3385,-6.79625 29.1347,-17.43152 38.40871,-31.89745c9.269,-14.45753 13.90601,-30.962 13.90601,-49.50501c0,-15.99315 -3.36292,-30.11373 -10.07368,-42.3718c-6.72584,-12.24968 -16.89004,-22.02998 -30.49932,-29.3409c-12.5967,-6.80631 -26.0685,-11.27232 -40.44892,-13.40139c-14.38043,-2.12739 -35.51688,-3.18857 -63.42442,-3.18857l-134.24022,0l0,380l152.10929,0c26.36525,0 48.1119,-2.3906 65.20144,-7.15166c17.09625,-4.75435 32.79938,-12.75428 47.08592,-23.98973c12.08708,-9.35784 21.69805,-21.18171 28.83797,-35.47663c7.13825,-14.29158 10.72246,-30.87316 10.72246,-49.7615c0,-25.85225 -7.06282,-46.40362 -21.1901,-61.63065zm-187.81728,-132.32405l6.62861,0c17.0141,0 29.817,0.12909 38.40368,0.38223c8.60009,0.25817 16.03338,1.74851 22.34012,4.46601c6.63532,2.90022 11.51374,7.57411 14.66207,14.03843c3.15001,6.46935 4.72753,12.76267 4.72753,18.88164c0,8.34696 -1.45345,15.65955 -4.33524,21.94951c-2.90024,6.30171 -8.17261,11.23544 -15.82718,14.80289c-6.98067,3.23551 -13.73333,5.01755 -20.28651,5.36457c-6.55317,0.34368 -17.99145,0.50293 -34.32491,0.50293l-11.98985,0l0,-80.38821l0.00168,0zm104.75347,216.79941c-3.99661,7.22878 -10.33687,12.72412 -19.01241,16.4525c-9.87586,4.26149 -19.57065,6.56155 -29.09278,6.89516c-9.5305,0.34032 -26.71561,0.51971 -51.54355,0.51971l-5.10641,0l0,-95.20118l17.59918,0c17.02079,0 30.58146,0.12741 40.70375,0.38557c10.12395,0.25482 18.08197,1.4937 23.86232,3.70324c9.53218,3.40483 16.66875,8.41736 21.43819,15.05269c4.76945,6.6353 7.15333,15.82214 7.15333,27.56219c0,9.18516 -2.005,17.40303 -6.00162,24.63012z"/>
  </g>
 </g>
</svg>